<svg width="600" height="400" viewBox="0 0 600 400" xmlns="http://www.w3.org/2000/svg">
  <defs>
    <linearGradient id="bg4" x1="0%" y1="0%" x2="100%" y2="100%">
      <stop offset="0%" style="stop-color:#667eea;stop-opacity:1" />
      <stop offset="100%" style="stop-color:#764ba2;stop-opacity:1" />
    </linearGradient>
    <linearGradient id="nlp" x1="0%" y1="0%" x2="100%" y2="100%">
      <stop offset="0%" style="stop-color:#00BCD4;stop-opacity:1" />
      <stop offset="100%" style="stop-color:#3F51B5;stop-opacity:1" />
    </linearGradient>
  </defs>
  
  <!-- Background -->
  <rect width="600" height="400" fill="url(#bg4)"/>
  
  <!-- Main Document -->
  <rect x="200" y="100" width="200" height="200" fill="white" rx="10" opacity="0.95"/>
  
  <!-- Text Lines in Document -->
  <line x1="220" y1="130" x2="380" y2="130" stroke="#333" stroke-width="2"/>
  <line x1="220" y1="150" x2="360" y2="150" stroke="#666" stroke-width="1"/>
  <line x1="220" y1="170" x2="370" y2="170" stroke="#666" stroke-width="1"/>
  <line x1="220" y1="190" x2="350" y2="190" stroke="#666" stroke-width="1"/>
  <line x1="220" y1="210" x2="365" y2="210" stroke="#666" stroke-width="1"/>
  <line x1="220" y1="230" x2="340" y2="230" stroke="#666" stroke-width="1"/>
  <line x1="220" y1="250" x2="375" y2="250" stroke="#666" stroke-width="1"/>
  <line x1="220" y1="270" x2="355" y2="270" stroke="#666" stroke-width="1"/>
  
  <!-- AI Processing Nodes -->
  <circle cx="100" cy="150" r="30" fill="url(#nlp)" opacity="0.9"/>
  <text x="100" y="155" font-family="Arial, sans-serif" font-size="12" font-weight="bold" fill="white" text-anchor="middle">NLP</text>
  
  <circle cx="500" cy="150" r="30" fill="url(#nlp)" opacity="0.9"/>
  <text x="500" y="155" font-family="Arial, sans-serif" font-size="12" font-weight="bold" fill="white" text-anchor="middle">AI</text>
  
  <!-- Connection Lines -->
  <path d="M130 150 Q170 150 200 150" stroke="white" stroke-width="3" fill="none" opacity="0.7"/>
  <path d="M400 150 Q440 150 470 150" stroke="white" stroke-width="3" fill="none" opacity="0.7"/>
  
  <!-- Data Points -->
  <circle cx="50" cy="200" r="8" fill="#4CAF50" opacity="0.8"/>
  <circle cx="70" cy="220" r="8" fill="#2196F3" opacity="0.8"/>
  <circle cx="90" cy="190" r="8" fill="#FF9800" opacity="0.8"/>
  
  <circle cx="550" cy="200" r="8" fill="#4CAF50" opacity="0.8"/>
  <circle cx="530" cy="220" r="8" fill="#2196F3" opacity="0.8"/>
  <circle cx="570" cy="190" r="8" fill="#FF9800" opacity="0.8"/>
  
  <!-- Title -->
  <text x="300" y="50" font-family="Arial, sans-serif" font-size="24" font-weight="bold" fill="white" text-anchor="middle">Natural Language Processing</text>
  <text x="300" y="75" font-family="Arial, sans-serif" font-size="16" fill="white" text-anchor="middle" opacity="0.9">AI-Powered Essay Analysis</text>
  
  <!-- Processing Indicators -->
  <rect x="250" y="340" width="100" height="30" fill="#4CAF50" rx="15"/>
  <text x="300" y="358" font-family="Arial, sans-serif" font-size="12" font-weight="bold" fill="white" text-anchor="middle">Processing...</text>
</svg>
