<svg width="800" height="400" viewBox="0 0 800 400" xmlns="http://www.w3.org/2000/svg">
  <defs>
    <linearGradient id="bg5" x1="0%" y1="0%" x2="100%" y2="100%">
      <stop offset="0%" style="stop-color:#FF6B6B;stop-opacity:1" />
      <stop offset="100%" style="stop-color:#4ECDC4;stop-opacity:1" />
    </linearGradient>
    <linearGradient id="desk" x1="0%" y1="0%" x2="0%" y2="100%">
      <stop offset="0%" style="stop-color:#8B4513;stop-opacity:1" />
      <stop offset="100%" style="stop-color:#654321;stop-opacity:1" />
    </linearGradient>
  </defs>
  
  <!-- Background -->
  <rect width="800" height="400" fill="url(#bg5)"/>
  
  <!-- Desks -->
  <rect x="50" y="250" width="150" height="100" fill="url(#desk)" rx="5"/>
  <rect x="250" y="250" width="150" height="100" fill="url(#desk)" rx="5"/>
  <rect x="450" y="250" width="150" height="100" fill="url(#desk)" rx="5"/>
  <rect x="650" y="250" width="100" height="100" fill="url(#desk)" rx="5"/>
  
  <!-- Students (simplified figures) -->
  <!-- Student 1 -->
  <circle cx="125" cy="200" r="25" fill="#FFB6C1"/>
  <rect x="100" y="225" width="50" height="60" fill="#4169E1" rx="5"/>
  <rect x="110" y="240" width="30" height="40" fill="white" rx="3"/>
  
  <!-- Student 2 -->
  <circle cx="325" cy="200" r="25" fill="#FDBCB4"/>
  <rect x="300" y="225" width="50" height="60" fill="#2E8B57" rx="5"/>
  <rect x="310" y="240" width="30" height="40" fill="white" rx="3"/>
  
  <!-- Student 3 -->
  <circle cx="525" cy="200" r="25" fill="#FFE4B5"/>
  <rect x="500" y="225" width="50" height="60" fill="#DC143C" rx="5"/>
  <rect x="510" y="240" width="30" height="40" fill="white" rx="3"/>
  
  <!-- Student 4 -->
  <circle cx="700" cy="200" r="25" fill="#E6E6FA"/>
  <rect x="675" y="225" width="50" height="60" fill="#8B008B" rx="5"/>
  <rect x="685" y="240" width="30" height="40" fill="white" rx="3"/>
  
  <!-- Laptops on desks -->
  <rect x="90" y="260" width="70" height="40" fill="#C0C0C0" rx="3"/>
  <rect x="290" y="260" width="70" height="40" fill="#C0C0C0" rx="3"/>
  <rect x="490" y="260" width="70" height="40" fill="#C0C0C0" rx="3"/>
  <rect x="680" y="260" width="60" height="40" fill="#C0C0C0" rx="3"/>
  
  <!-- Laptop screens with content -->
  <rect x="95" y="265" width="60" height="30" fill="#87CEEB"/>
  <rect x="295" y="265" width="60" height="30" fill="#87CEEB"/>
  <rect x="495" y="265" width="60" height="30" fill="#87CEEB"/>
  <rect x="685" y="265" width="50" height="30" fill="#87CEEB"/>
  
  <!-- Learning elements floating around -->
  <circle cx="200" cy="100" r="15" fill="#FFD700" opacity="0.8"/>
  <text x="200" y="105" font-family="Arial, sans-serif" font-size="12" font-weight="bold" fill="white" text-anchor="middle">A+</text>
  
  <circle cx="400" cy="80" r="15" fill="#4CAF50" opacity="0.8"/>
  <text x="400" y="85" font-family="Arial, sans-serif" font-size="12" font-weight="bold" fill="white" text-anchor="middle">✓</text>
  
  <circle cx="600" cy="100" r="15" fill="#2196F3" opacity="0.8"/>
  <text x="600" y="105" font-family="Arial, sans-serif" font-size="12" font-weight="bold" fill="white" text-anchor="middle">📚</text>
  
  <!-- Title -->
  <text x="400" y="40" font-family="Arial, sans-serif" font-size="28" font-weight="bold" fill="white" text-anchor="middle">University Learning Environment</text>
  <text x="400" y="65" font-family="Arial, sans-serif" font-size="16" fill="white" text-anchor="middle" opacity="0.9">Students Enhancing Their Writing Skills</text>
</svg>
